<?xml version="1.0" encoding="UTF-8"?><svg id="Ebene_2" xmlns="http://www.w3.org/2000/svg" viewBox="0 0 198.97 121.44"><defs><style>.cls-1{fill:#f5f4f0;}.cls-2{fill:#eae8df;}</style></defs><g id="Ebene_1-2"><path class="cls-1" d="M122.79,42.08c3.25.28,6.45.22,9.5.86,11,2.32,18.9,12.75,18.8,24.49-.1,11.12-7.67,20.25-18.83,22.66-.96.21-1.98.18-2.97.18-34.08.01-68.15.03-102.23,0-7.91,0-14.25-3.42-19.27-9.4-9.85-11.75-10.44-29.92-1.26-41.3,6.2-7.68,14.74-10.76,24.25-11.57,3.04-.26,6.12-.04,9.19-.04,3.25-13.26,12.52-20.46,24.32-24.82,12.51-4.62,24.98-4.45,36.76,2.43,10.18,5.95,15.82,15.38,19.18,26.35,1.04,3.39,1.75,6.89,2.56,10.15Z"/><path class="cls-2" d="M170.68,73.22c3.25.28,6.45.22,9.5.86,11,2.32,18.9,12.75,18.8,24.49-.1,11.12-7.67,20.25-18.83,22.66-.96.21-1.98.18-2.97.18-34.08.01-68.15.03-102.23,0-7.91,0-14.25-3.42-19.27-9.4-9.85-11.75-10.44-29.92-1.26-41.3,6.2-7.68,14.74-10.76,24.25-11.57,3.04-.26,6.12-.04,9.19-.04,3.25-13.26,12.52-20.46,24.32-24.82,12.51-4.62,24.98-4.45,36.76,2.43,10.18,5.95,15.82,15.38,19.18,26.35,1.04,3.39,1.75,6.89,2.56,10.15Z"/></g></svg>