<?xml version="1.0" encoding="UTF-8"?><svg id="Ebene_2" xmlns="http://www.w3.org/2000/svg" viewBox="0 0 112.16 111.77"><defs><style>.cls-1{fill:#fbd94c;}</style></defs><g id="Ebene_1-2"><path class="cls-1" d="M0,55.69c.48-1.75,1.78-2.25,3.42-2.25,6.33,0,12.65,0,18.98,0,1.78,0,3.31.53,3.27,2.55-.04,2.05-1.62,2.39-3.38,2.38-6.24-.04-12.49-.05-18.73,0-1.68.02-2.94-.4-3.56-2.07,0-.2,0-.4,0-.6Z"/><path class="cls-1" d="M56.2,30.33c14.04.04,25.64,11.59,25.63,25.54,0,14.11-11.67,25.76-25.74,25.7-14.16-.06-25.64-11.63-25.61-25.82.03-13.96,11.66-25.46,25.71-25.43Z"/><path class="cls-1" d="M79.47,35.2c-1.12-.2-1.87-.64-2.31-1.55-.58-1.19-.06-2.09.75-2.9,3.82-3.82,7.66-7.64,11.49-11.45.94-.94,1.88-1.88,2.85-2.8,1.14-1.08,2.42-1.2,3.53-.07,1.02,1.03.99,2.34-.01,3.35-4.92,4.96-9.89,9.87-14.87,14.76-.38.37-1.03.48-1.42.65Z"/><path class="cls-1" d="M99.61,58.34c-3.32,0-6.64-.04-9.96.01-1.76.03-3.04-.6-3.05-2.45-.01-1.9,1.41-2.46,3.08-2.46,6.47,0,12.95,0,19.42,0,1.73,0,3.08.7,3.06,2.5-.02,1.79-1.32,2.46-3.09,2.42-3.15-.07-6.31-.02-9.46-.02Z"/><path class="cls-1" d="M94.51,96.17c-1.27.08-1.91-.43-2.51-1.03-4.69-4.69-9.38-9.37-14.08-14.06-1.17-1.17-1.52-2.42-.21-3.66,1.28-1.22,2.54-.86,3.7.3,4.69,4.69,9.38,9.38,14.08,14.05.86.85,1.16,1.84.76,2.94-.33.92-1.11,1.41-1.75,1.47Z"/><path class="cls-1" d="M32.66,76.72c1.14-.07,1.88.38,2.38,1.26.63,1.12.33,2.07-.52,2.92-2.76,2.76-5.53,5.53-8.29,8.29-2,2-4.01,3.99-6,5.99-1.19,1.19-2.5,1.45-3.7.19-1.08-1.14-.88-2.45.21-3.55,4.76-4.77,9.52-9.53,14.3-14.28.47-.46.99-.91,1.62-.83Z"/><path class="cls-1" d="M35.36,32.79c-.11.91-.5,1.66-1.42,2.12-.95.48-1.83.34-2.52-.34-4.97-4.87-9.93-9.76-14.82-14.7-1.05-1.06-1.19-2.44.02-3.52,1.16-1.04,2.42-.87,3.52.24,4.7,4.67,9.41,9.34,14.11,14.02.6.59,1.1,1.24,1.12,2.19Z"/><path class="cls-1" d="M58.59,12.87c0,3.24,0,6.48,0,9.72,0,1.75-.7,2.96-2.62,2.88-1.85-.08-2.22-1.41-2.21-2.98.02-6.48.02-12.96,0-19.44,0-1.73.55-3.09,2.45-3.04,1.88.04,2.4,1.46,2.39,3.15-.02,3.24,0,6.48,0,9.72Z"/><path class="cls-1" d="M58.59,99.19c0,3.16,0,6.31,0,9.47,0,1.65-.39,3.08-2.38,3.11-1.96.03-2.47-1.27-2.46-3,.03-6.48.02-12.96,0-19.44,0-1.57.41-2.95,2.21-3.02,1.84-.07,2.62,1.14,2.62,2.9,0,3.32,0,6.65,0,9.97Z"/><path class="cls-1" d="M84.72,69.81c.42.16.99.31,1.48.59,3.38,1.94,6.74,3.91,10.12,5.85,1.49.85,2.38,2.05,1.43,3.66-.92,1.57-2.36,1.51-3.88.6-3.42-2.04-6.88-4-10.32-6-1.16-.67-1.56-1.69-1.21-2.97.3-1.11,1.17-1.54,2.37-1.73Z"/><path class="cls-1" d="M50.04,23.51c.02,1.92-.6,2.81-1.91,3.12-1.37.32-2.35-.34-2.71-1.57-1.23-4.2-2.38-8.42-3.47-12.65-.36-1.42.45-2.43,1.78-2.86,1.17-.38,2.33.08,2.67,1.2,1.35,4.41,2.54,8.88,3.64,12.77Z"/><path class="cls-1" d="M23.97,61.97c1.7.1,2.59.77,2.86,2.05.25,1.2-.31,2.25-1.44,2.58-4.36,1.27-8.75,2.48-13.17,3.55-1.28.31-2.19-.64-2.55-1.87-.35-1.22.2-2.29,1.29-2.62,4.42-1.35,8.89-2.54,13-3.69Z"/><path class="cls-1" d="M70.35,12.62c-1.07,3.86-2.24,8.25-3.55,12.6-.34,1.12-1.44,1.64-2.63,1.34-1.26-.32-2.16-1.23-1.84-2.55,1.08-4.41,2.26-8.8,3.53-13.15.33-1.12,1.48-1.66,2.63-1.36,1.21.32,1.96,1.2,1.85,3.12Z"/><path class="cls-1" d="M88.36,61.95c4.17,1.17,8.63,2.37,13.05,3.72,1.13.35,1.57,1.5,1.22,2.66-.37,1.24-1.36,2.11-2.62,1.8-4.42-1.08-8.81-2.27-13.16-3.57-1.08-.32-1.64-1.44-1.37-2.64.3-1.3,1.28-1.86,2.87-1.97Z"/><path class="cls-1" d="M88.72,49.79c-2.08.1-2.91-.67-3.22-1.9-.3-1.19.26-2.28,1.38-2.6,4.36-1.26,8.74-2.43,13.15-3.5,1.31-.32,2.22.53,2.6,1.78.36,1.2-.12,2.31-1.23,2.64-4.42,1.34-8.88,2.52-12.68,3.58Z"/><path class="cls-1" d="M23.69,49.81c-3.85-1.08-8.34-2.26-12.78-3.62-1.08-.33-1.57-1.47-1.19-2.68.36-1.14,1.16-1.96,2.4-1.73,4.57.87,9.04,2.13,13.46,3.58,1.06.35,1.58,1.51,1.2,2.71-.36,1.14-1.18,1.78-3.09,1.73Z"/><path class="cls-1" d="M84.7,41.91c-1.12.04-1.96-.39-2.35-1.47-.37-1.03-.29-2.11.66-2.68,3.91-2.35,7.85-4.66,11.85-6.84.97-.53,2.17-.19,2.84.89.64,1.02.72,2.26-.28,2.94-3.9,2.66-8.03,4.96-12.25,7.1-.14.07-.33.05-.49.07Z"/><path class="cls-1" d="M42.18,27.51c-.11,1.04-.51,1.94-1.59,2.28-1,.31-2.09.28-2.68-.7-2.34-3.89-4.66-7.8-6.86-11.76-.56-1.01-.15-2.12.84-2.85,1.02-.75,2.29-.73,2.93.17,2.76,3.91,5.08,8.09,7.23,12.36.07.14.08.32.12.5Z"/><path class="cls-1" d="M16.46,81.19c-1.01-.11-1.78-.64-2.13-1.69-.36-1.07-.13-2.08.8-2.63,3.9-2.32,7.84-4.57,11.81-6.78,1.14-.63,2.14-.02,2.78.93.65.98.71,2.25-.28,2.93-3.95,2.7-8.14,5.02-12.4,7.2-.14.07-.33.03-.56.05Z"/><path class="cls-1" d="M81.37,94.69c.08,1.76-.45,2.6-1.47,2.97-.98.35-2.12.3-2.71-.68-2.34-3.91-4.63-7.86-6.85-11.84-.53-.96-.14-2,.72-2.68.84-.66,2.02-1.01,2.73-.15,3.25,3.9,5.2,8.6,7.58,12.39Z"/><path class="cls-1" d="M62.14,87.78c.08-1.29.66-2.17,1.83-2.5,1.27-.35,2.51.07,2.88,1.33,1.28,4.37,2.44,8.78,3.52,13.21.28,1.17-.5,2.07-1.68,2.41-1.16.34-2.38.08-2.74-1.07-1.37-4.43-2.55-8.91-3.81-13.38Z"/><path class="cls-1" d="M16.74,30.78c.63-.07,1.11.26,1.61.56,3.3,1.91,6.59,3.86,9.93,5.71,1.54.85,2.38,2.03,1.53,3.64-.88,1.67-2.41,1.5-3.87.66-3.45-1.99-6.89-4-10.33-5.99-1.26-.73-1.71-1.78-1.22-3.15.39-1.09,1.25-1.49,2.36-1.42Z"/><path class="cls-1" d="M42.16,84.61c-.17.39-.36.94-.65,1.44-1.92,3.39-3.86,6.78-5.8,10.15-.81,1.41-2.05,2.1-3.55,1.29-1.51-.82-1.61-2.17-.76-3.63,2.04-3.51,4.04-7.05,6.11-10.55.63-1.07,1.56-1.72,2.92-1.32,1.23.36,1.65,1.28,1.74,2.62Z"/><path class="cls-1" d="M50.17,87.77c-1.25,4.47-2.43,8.95-3.79,13.39-.36,1.19-1.57,1.4-2.73,1.08-1.19-.32-1.99-1.23-1.71-2.39,1.11-4.5,2.31-8.99,3.64-13.43.34-1.12,1.56-1.5,2.73-1.15,1.16.34,1.75,1.2,1.86,2.49Z"/><path class="cls-1" d="M70.31,26.99c.06-.15.19-.72.47-1.21,1.98-3.44,4-6.86,5.99-10.3.78-1.35,1.86-1.9,3.31-1.14,1.59.83,1.69,2.16.89,3.57-1.99,3.53-4.04,7.03-6.08,10.53-.71,1.21-1.79,1.78-3.15,1.31-1.03-.36-1.55-1.21-1.43-2.77Z"/></g></svg>