<?xml version="1.0" encoding="UTF-8"?><svg id="Ebene_2" xmlns="http://www.w3.org/2000/svg" viewBox="0 0 114.97 114.33"><defs><style>.cls-1{fill:none;stroke:#163649;stroke-linecap:round;stroke-linejoin:round;stroke-width:4px;}</style></defs><g id="Ebene_1-2"><path class="cls-1" d="M73.02,79.89c3.93,2.34,8.52,3.66,13.41,3.66,14.65,0,26.54-11.92,26.54-26.59,0-4.66-1.2-9.05-3.29-12.84l-.02-.02L86.42,2l-23.24,42.1-.02.02c-.29.51-.55,1.04-.8,1.59-1.58,3.4-2.46,7.24-2.46,11.25,0,9.78,5.26,18.34,13.12,22.93Z"/><path class="cls-1" d="M91.48,72.08c6.3-2.12,10.87-8.1,10.87-15.12"/><path class="cls-1" d="M57.22,36.18L38.17,2,6.48,59c-2.84,5.12-4.48,11.08-4.48,17.37,0,19.86,16.2,35.97,36.17,35.97,15.22,0,28.27-9.38,33.6-22.62"/><path class="cls-1" d="M40.17,100.86c-14.69,0-26.63-11.87-26.63-26.48"/></g></svg>