<?xml version="1.0" encoding="UTF-8"?><svg id="Ebene_2" xmlns="http://www.w3.org/2000/svg" viewBox="0 0 130.69 194.82"><defs><style>.cls-1{fill:none;stroke:#163649;stroke-linecap:round;stroke-linejoin:round;stroke-width:4px;}</style></defs><g id="Ebene_1-2"><path class="cls-1" d="M117.75,177.21c0,8.61-6.91,15.61-15.46,15.61s-15.46-7-15.46-15.61c0-2.67.66-5.19,1.83-7.39l13.62-25.56,13.63,25.56c1.17,2.21,1.83,4.72,1.83,7.39Z"/><path class="cls-1" d="M102.29,183.99c-3.64,0-6.62-3.05-6.62-6.78"/><path class="cls-1" d="M32.92,34.95c0,8.61-6.91,15.61-15.46,15.61s-15.46-7-15.46-15.61c0-2.67.66-5.19,1.83-7.39L17.46,2l13.63,25.56c1.17,2.21,1.83,4.72,1.83,7.39Z"/><path class="cls-1" d="M17.46,41.73c-3.64,0-6.62-3.05-6.62-6.78"/><path class="cls-1" d="M88.94,115.23c3.91,2.34,8.48,3.66,13.34,3.66,14.58,0,26.41-11.92,26.41-26.6,0-4.66-1.19-9.05-3.27-12.85l-.02-.02-23.12-42.11-23.12,42.11-.02.02c-.29.51-.55,1.04-.79,1.59-1.57,3.4-2.45,7.24-2.45,11.26,0,9.78,5.23,18.34,13.05,22.93Z"/><path class="cls-1" d="M107.31,107.42c6.27-2.12,10.82-8.1,10.82-15.12"/><path class="cls-1" d="M73.22,71.51l-18.95-34.19-31.53,57.01c-2.83,5.12-4.46,11.08-4.46,17.37,0,19.87,16.12,35.98,36,35.98,15.15,0,28.13-9.38,33.43-22.62"/><path class="cls-1" d="M56.25,136.2c-14.62,0-26.5-11.88-26.5-26.49"/></g></svg>