<?xml version="1.0" encoding="UTF-8"?><svg id="Ebene_2" xmlns="http://www.w3.org/2000/svg" viewBox="0 0 157.52 218.37"><defs><style>.cls-1{fill:none;stroke:#163649;stroke-linecap:round;stroke-linejoin:round;stroke-width:4px;}</style></defs><g id="Ebene_1-2"><path class="cls-1" d="M59.72,35.01c0,8.62-6.91,15.63-15.46,15.63s-15.46-7.01-15.46-15.63c0-2.68.66-5.2,1.83-7.41L44.26,2l13.63,25.61c1.17,2.21,1.83,4.73,1.83,7.41Z"/><path class="cls-1" d="M44.26,41.8c-3.64,0-6.63-3.05-6.63-6.79"/><path class="cls-1" d="M144.57,172.11c0,8.62-6.91,15.63-15.46,15.63s-15.46-7.01-15.46-15.63c0-2.68.66-5.2,1.83-7.41l13.63-25.61,13.63,25.61c1.17,2.21,1.83,4.73,1.83,7.41Z"/><path class="cls-1" d="M129.11,178.9c-3.64,0-6.63-3.05-6.63-6.79"/><path class="cls-1" d="M115.76,115.44c3.91,2.34,8.48,3.67,13.34,3.67,14.58,0,26.42-11.94,26.42-26.65,0-4.67-1.19-9.07-3.27-12.87l-.02-.02-23.13-42.19-23.13,42.19-.02.02c-.29.51-.55,1.04-.8,1.59-1.57,3.41-2.45,7.25-2.45,11.28,0,9.8,5.24,18.38,13.05,22.97Z"/><path class="cls-1" d="M134.14,107.61c6.27-2.12,10.82-8.12,10.82-15.15"/><path class="cls-1" d="M15.05,212.7c3.91,2.34,8.48,3.67,13.34,3.67,14.58,0,26.42-11.94,26.42-26.65,0-4.67-1.19-9.07-3.27-12.87l-.02-.02-23.13-42.19-23.13,42.19-.02.02c-.29.51-.55,1.04-.8,1.59-1.57,3.41-2.45,7.25-2.45,11.28,0,9.8,5.24,18.38,13.05,22.98Z"/><path class="cls-1" d="M33.43,204.87c6.27-2.12,10.82-8.12,10.82-15.15"/><path class="cls-1" d="M100.03,71.63l-18.95-34.25-31.54,57.12c-2.83,5.13-4.46,11.1-4.46,17.4,0,19.9,16.12,36.04,36,36.04,15.15,0,28.14-9.4,33.44-22.67"/><path class="cls-1" d="M83.06,136.45c-14.62,0-26.51-11.9-26.51-26.54"/></g></svg>