<?xml version="1.0" encoding="UTF-8"?><svg id="Ebene_2" xmlns="http://www.w3.org/2000/svg" viewBox="0 0 198.97 201.43"><defs><style>.cls-1{fill:#f5f4f0;}.cls-2{fill:#84c6e3;}.cls-3{fill:#eae8df;}</style></defs><g id="Ebene_1-2"><path class="cls-1" d="M122.79,42.08c3.25.28,6.45.22,9.5.86,11,2.32,18.9,12.75,18.8,24.49-.1,11.12-7.67,20.25-18.83,22.66-.96.21-1.98.18-2.97.18-34.08.01-68.15.03-102.23,0-7.91,0-14.25-3.42-19.27-9.4-9.85-11.75-10.44-29.92-1.26-41.3,6.2-7.68,14.74-10.76,24.25-11.57,3.04-.26,6.12-.04,9.19-.04,3.25-13.26,12.52-20.46,24.32-24.82,12.51-4.62,24.98-4.45,36.76,2.43,10.18,5.95,15.82,15.38,19.18,26.35,1.04,3.39,1.75,6.89,2.56,10.15Z"/><path class="cls-3" d="M170.68,73.22c3.25.28,6.45.22,9.5.86,11,2.32,18.9,12.75,18.8,24.49-.1,11.12-7.67,20.25-18.83,22.66-.96.21-1.98.18-2.97.18-34.08.01-68.15.03-102.23,0-7.91,0-14.25-3.42-19.27-9.4-9.85-11.75-10.44-29.92-1.26-41.3,6.2-7.68,14.74-10.76,24.25-11.57,3.04-.26,6.12-.04,9.19-.04,3.25-13.26,12.52-20.46,24.32-24.82,12.51-4.62,24.98-4.45,36.76,2.43,10.18,5.95,15.82,15.38,19.18,26.35,1.04,3.39,1.75,6.89,2.56,10.15Z"/><path class="cls-2" d="M120.57,135.15c1.49,5.3,3.9,9.41,6.11,13.61,1.02,1.94,1.51,3.97.93,6.22-.55,2.14-1.76,3.5-3.84,4.12-2.12.62-4.29.63-6.38.01-3.56-1.06-5.12-4.94-3.46-9,1.98-4.86,5.03-9.23,6.64-14.96Z"/><path class="cls-2" d="M98.74,157.76c1.33,4.5,3.15,8.37,5.37,12.07.26.42.48.87.69,1.32,1.44,3.02,1.93,6.06-.36,8.86-1.69,2.07-6.53,2.64-9.57,1.33-2.93-1.26-4.18-4.61-3.04-8.27.57-1.82,1.59-3.44,2.51-5.1,1.74-3.16,3.14-6.49,4.4-10.21Z"/><path class="cls-2" d="M129.66,178.13c1.23,4.23,3.4,8.22,5.61,12.2.48.86.89,1.8,1.1,2.75.72,3.25-.21,6-2.37,7.32-2.49,1.53-7.66,1.31-9.72-.41-2.34-1.95-2.86-5.58-1.03-9.17,2.14-4.2,4.57-8.25,5.89-12.82.02-.05.1-.13.13-.12.08.02.14.08.38.25Z"/><path class="cls-2" d="M148.74,150.44c1.38,4.72,3.47,8.73,5.68,12.7.64,1.14,1.15,2.41,1.4,3.68.57,2.95-.5,5.48-2.62,6.72-2.44,1.44-7.38,1.26-9.52-.33-1.93-1.44-2.64-4.33-1.87-7.25.39-1.46,1.08-2.78,1.81-4.06,2.01-3.52,3.71-7.17,5.1-11.46Z"/><path class="cls-2" d="M167.15,128.72c1.22,4.09,2.87,7.5,4.72,10.82.52.94,1.06,1.87,1.5,2.84,1.59,3.55,1.22,6.78-.93,8.73-2.12,1.92-7.18,2.22-9.89.59-2.27-1.38-3.3-4.64-2.27-7.75.49-1.48,1.19-2.91,1.96-4.26,1.93-3.38,3.47-6.92,4.91-10.97Z"/></g></svg>