<?xml version="1.0" encoding="UTF-8"?><svg id="Ebene_2" xmlns="http://www.w3.org/2000/svg" viewBox="0 0 133.5 143.2"><defs><style>.cls-1{fill:#163649;}</style></defs><g id="Ebene_1-2"><path class="cls-1" d="M.4,143.2c-.14-.77-.59-1.69-.32-2.25.24-.48,1.31-.74,2.02-.76,3.02-.08,6.03-.03,9.22-.03v-1.61c0-39.69,0-79.38.01-119.06,0-.89-.18-1.5-.94-2.11-3.55-2.84-4.62-7.65-2.7-11.72C9.58,1.65,14.13-.69,18.32.18c4.61.97,7.9,4.69,8.02,9.3.08,3.2-1.15,5.91-3.69,7.92-.69.55-.97,1.11-.96,1.99.05,4.1.02,8.2.02,12.3v1.45c1-.54,1.8-.96,2.6-1.4,8.91-4.93,17.82-9.87,26.75-14.75.95-.52,1.34-1.09,1.26-2.17-.21-2.96-.02-4.22,3.91-2.69,7.21,2.8,14.79,4.14,22.48,4.38,7.72.24,15.46-.25,23.18-.13,8.57.13,17.09.86,25.25,3.82,1.74.63,3.39,1.5,5.08,2.29.88.41,1.29,1.08,1.28,2.1-.03,6.24,0,12.48-.02,18.73,0,1.52-.67,1.88-2.21,1.92-4.74.11-9.5.12-14.2.61-10.68,1.1-20.59,5.07-30.62,8.58-7.52,2.63-15.26,4.47-23.26,4.75-3.04.1-6.1-.4-9.16-.64-1.29-.1-1.78-.88-1.71-2.08.04-.76-.13-1.28-.88-1.69-9.62-5.28-19.22-10.6-28.83-15.91-.23-.13-.49-.21-.83-.36v101.69h108.33c.37,0,.77-.08,1.11.01.72.19,1.79.29,2.03.78.28.56-.18,1.49-.31,2.25H.4ZM18.54,140.08V19.52h-4.07v120.56h4.07ZM67.95,55.67c.07-.22.12-.31.12-.4,0-11.97,0-23.95.04-35.92,0-.83-.41-.97-1.06-1.13-3.12-.73-6.22-1.49-9.33-2.27-.73-.18-1.43-.47-2.21-.74v40.46c4.19.85,8.3.55,12.45,0h0ZM52.13,51.65v-31.81c-9.62,5.32-19.08,10.56-28.74,15.9,9.69,5.36,19.14,10.59,28.74,15.91ZM71.21,55.34c3.75-.94,7.33-1.89,10.94-2.74,1.11-.27,1.41-.81,1.4-1.93-.05-9.73-.03-19.47-.03-29.21v-1.5c-4.2-.3-8.22-.59-12.31-.89v36.28ZM86.65,51.09c.69-.22,1.21-.37,1.73-.55,3.19-1.15,6.36-2.35,9.56-3.44.9-.31,1.19-.68,1.18-1.64-.04-8.24-.03-16.48-.03-24.72,0-.4-.05-.81-.08-1.36-4.16.17-8.23.34-12.36.51v31.21h0ZM102.22,19.35v26.27c4.13-.91,8.18-1.81,12.31-2.73,0-7.25.01-14.5-.03-21.75,0-.3-.48-.84-.77-.87-3.79-.35-7.58-.62-11.5-.92h0ZM117.68,20.94v21.47c4.26-.18,8.43-.36,12.74-.55v-14.2c0-2.89.01-2.91-2.65-4-3.23-1.32-6.56-2.28-10.1-2.74h0ZM9.86,9.84c0,3.75,3.02,6.75,6.74,6.72,3.64-.03,6.75-3.2,6.7-6.84-.06-3.63-3.1-6.61-6.75-6.61-3.79,0-6.7,2.93-6.69,6.72h0Z"/><path class="cls-1" d="M84.47,97.34h-16.07c-1.5,0-2.19-.5-2.11-1.57.1-1.3,1.01-1.49,2.09-1.48,10.34.01,20.68.01,31.02,0,7.2,0,12.22-5.09,12.33-12.31.05-3.18-.21-6.21-2.11-8.91-3.01-4.25-8.38-6.08-13.33-4.51-4.92,1.56-8.32,6.19-8.33,11.36,0,.28.02.56.03.84.03,1.01-.48,1.64-1.46,1.67-.91.03-1.6-.58-1.52-1.47.19-2.11.23-4.32.9-6.29,2.28-6.65,8.8-10.51,15.97-9.72,6.46.71,12.06,6.15,12.8,12.88.64,5.86-.07,11.47-4.9,15.71-2.76,2.42-5.97,3.75-9.65,3.78-5.22.05-10.43.01-15.65.01h0Z"/><path class="cls-1" d="M68.77,109.94c-3.91,0-7.82-.02-11.74.01-1.13,0-2.04-.28-2.02-1.53.02-1.24.97-1.53,2.07-1.53,7.82.01,15.65-.05,23.47.02,6.92.06,11.95,5.49,11.75,12.54-.16,5.91-4.05,10.68-9.51,11.66-5.43.98-10.85-1.95-12.85-7.1-.51-1.31-.65-2.79-.83-4.2-.12-.91.42-1.54,1.36-1.6.92-.06,1.49.43,1.61,1.37.1.74.12,1.49.31,2.21,1.04,4.05,4.69,6.68,8.82,6.4,4.19-.28,7.37-3.29,7.9-7.48.82-6.44-2.97-10.76-9.45-10.76h-10.9,0Z"/><path class="cls-1" d="M64.03,88.3c-3.63,0-7.25.03-10.88-.03-.6,0-1.34-.19-1.76-.58-.83-.75-.35-2.12.76-2.37.4-.09.83-.08,1.25-.08,7.11,0,14.23,0,21.34,0,.42,0,.93-.1,1.23.1.48.33,1.11.86,1.13,1.33.03.48-.51,1.12-.97,1.45-.36.25-.98.18-1.49.18-3.53.01-7.06,0-10.6,0h0Z"/><path class="cls-1" d="M40.94,88.29c-.93,0-1.85.03-2.78,0-.97-.04-1.62-.56-1.61-1.55.01-.99.66-1.48,1.65-1.48,1.9,0,3.8-.01,5.69.01.91.01,1.48.46,1.51,1.44.03.97-.52,1.48-1.42,1.55-1.01.07-2.04.02-3.05.02v.02h0Z"/></g></svg>