<?xml version="1.0" encoding="UTF-8"?><svg id="Ebene_2" xmlns="http://www.w3.org/2000/svg" xmlns:xlink="http://www.w3.org/1999/xlink" viewBox="0 0 133.34 143.2"><defs><style>.cls-1{fill:none;}.cls-2{fill:#163649;}.cls-3{clip-path:url(#clippath);}</style><clipPath id="clippath"><rect class="cls-1" width="133.34" height="143.2"/></clipPath></defs><g id="Ebene_1-2"><g class="cls-3"><path class="cls-2" d="M92.53,121.41c-.26-1.84-.43-3.7-.84-5.5-1.96-8.45-5.98-16-10.53-23.26-4.1-6.55-8.72-12.77-12.72-19.38-3.98-6.58-6.98-13.67-8.55-21.24-.85-4.12-2.01-3.6-4.38-1.81-.87.65-1.56.63-2.51.12-8.86-4.79-17.76-9.52-26.64-14.27-.09-.05-4.28-2.31-4.57-2.47l-2.57,4c.77,10.95,1.5,22.64,2.3,33.58.06.86-.28,1.28-.94,1.66-1.05.59-1.44,1.43-.82,2.57,1.46,2.69,2.7,5.53,4.44,8.03,4.58,6.56,10.34,12.06,16.63,16.94,8.41,6.51,17.12,12.67,23.85,21.03,2.96,3.69,5.56,7.67,8.23,11.59.87,1.27,1.53,1.64,2.81.81,5.25-3.38,10.47-6.8,15.73-10.16.86-.55,1.21-1.25,1.07-2.22h0ZM22.2,37.3c9.74,5.2,19.27,10.3,28.97,15.48-8.94,5.79-17.72,11.48-26.69,17.3-.76-10.95-1.51-21.72-2.29-32.77h0ZM29.72,85.53c-2.73-3.19-5.22-6.47-6.78-10.44,11.3-7.32,22.54-14.61,33.95-22,.2.79.34,1.54.58,2.26,1.03,3.03,2.08,6.05,3.17,9.07.23.63.32,1.06-.37,1.51-10.06,6.49-20.11,13-30.16,19.5-.07.05-.17.05-.39.12h0ZM42.4,95.9c-.94.62-1.56.67-2.39-.12-2.68-2.56-5.42-5.06-8.25-7.68,10.33-6.7,20.37-13.2,30.45-19.73,1.98,3.6,3.92,7.12,5.95,10.81-.43.28-.85.55-1.26.82-8.17,5.29-16.35,10.57-24.5,15.91h0ZM53.22,106.04c-2.66-2.1-5.39-4.11-8.09-6.16-.43-.33-.84-.69-1.4-1.15,8.83-5.72,17.45-11.31,26.19-16.97,2.39,3.38,4.75,6.7,7.15,10.1-.44.33-.76.59-1.1.81-6.91,4.48-13.84,8.95-20.73,13.47-.8.53-1.28.49-2.02-.1h0ZM65.77,117.68c-3.02-2.97-5.98-5.88-8.99-8.85,7.29-4.72,14.53-9.42,22.05-14.29,1.88,3.46,3.72,6.79,5.48,10.16.14.26-.05.96-.31,1.12-6.06,3.98-12.15,7.92-18.23,11.86h0ZM87.19,122.74c-3.6,2.33-7.2,4.66-10.79,6.99-.38.25-.76.49-1.12.72-2.5-3.52-4.91-6.92-7.39-10.4,5.92-3.84,11.92-7.72,18.02-11.68,1.54,3.22,2.55,6.53,3.2,9.96.53,2.82.5,2.83-1.92,4.39h0Z"/><path class="cls-2" d="M133.25,140.94c-.24-.48-1.31-.58-2.03-.78-.35-.09-.74-.01-1.11-.01H21.78V38.46l-.09-5.34s.02-.01.03-.02v-1.42c-.01-6.59-.03-11.37-.04-12.3-.01-.88.26-1.45.96-1.99,2.54-2.01,3.77-4.72,3.69-7.92-.12-4.61-3.41-8.33-8.02-9.3-4.19-.88-8.74,1.47-10.62,5.47-1.91,4.06-.85,8.88,2.7,11.72.77.61.94,1.21.94,2.11-.02,39.69-.01,79.38-.01,119.06v1.61c-3.18,0-6.2-.04-9.22.03-.71.02-1.79.28-2.02.76-.28.56.18,1.49.32,2.25h132.53c.14-.77.59-1.69.31-2.25h0ZM18.54,140.08h-4.07V19.52h4.07v120.56ZM16.61,16.56c-3.73.03-6.74-2.97-6.74-6.72,0-3.79,2.91-6.72,6.69-6.72,3.65,0,6.7,2.98,6.75,6.61.06,3.64-3.05,6.81-6.7,6.84h0Z"/></g></g></svg>