<?xml version="1.0" encoding="UTF-8"?><svg id="Ebene_2" xmlns="http://www.w3.org/2000/svg" xmlns:xlink="http://www.w3.org/1999/xlink" viewBox="0 0 133.34 143.2"><defs><style>.cls-1{fill:none;}.cls-2{fill:#163649;}.cls-3{clip-path:url(#clippath);}</style><clipPath id="clippath"><rect class="cls-1" width="133.34" height="143.2"/></clipPath></defs><g id="Ebene_1-2"><g class="cls-3"><path class="cls-2" d="M133.25,140.94c-.24-.48-1.31-.58-2.03-.78-.35-.09-.74-.01-1.11-.01H21.77v-38.45c4.85,7.3,9.63,14.63,12.64,22.96,1.61,4.45,2.77,9.06,4.03,13.63.41,1.49.93,2.05,2.4,1.68,6.06-1.5,12.11-3.03,18.17-4.51.99-.25,1.55-.8,1.73-1.75.35-1.83.8-3.64.99-5.48.89-8.63-.47-17.08-2.42-25.42-1.76-7.52-4.1-14.91-5.75-22.46-1.64-7.51-2.18-15.19-1.2-22.87.53-4.18-.74-4.06-3.56-3.14-1.03.34-1.68.1-2.41-.7-6.83-7.4-13.71-14.76-20.57-22.14-.07-.08-3.3-3.57-3.52-3.82l-.59-.72c0-4.73-.01-6.82-.02-7.57,0-.88.27-1.44.96-1.99,2.55-2.01,3.77-4.72,3.69-7.92-.12-4.61-3.41-8.33-8.01-9.3-4.19-.88-8.74,1.47-10.63,5.47-1.91,4.06-.85,8.88,2.71,11.72.76.61.94,1.21.94,2.11,0,12.71-.01,25.42-.01,38.13-.5,1.86-.99,3.72-1.47,5.54-.22.83-.68,1.12-1.42,1.27-1.18.22-1.83.88-1.61,2.16.51,3.02.76,6.11,1.6,9.04.79,2.76,1.77,5.44,2.9,8.05v56.49c-3.18,0-6.2-.05-9.22.03-.71.02-1.79.28-2.02.76-.28.56.18,1.49.32,2.25h132.53c.13-.77.59-1.69.31-2.25ZM58.5,129.69c-.41,2.85-.44,2.84-3.24,3.54-4.16,1.04-8.32,2.08-12.48,3.11-.44.11-.88.22-1.3.32-1.22-4.14-2.4-8.14-3.61-12.23,6.85-1.71,13.78-3.44,20.83-5.2.41,3.54.29,7-.21,10.46ZM58.39,115.23c.05.29-.36.89-.65.96-7.02,1.8-14.06,3.55-21.09,5.3-1.89-3.79-3.75-7.5-5.63-11.28,8.42-2.1,16.8-4.2,25.49-6.37.66,3.88,1.31,7.63,1.89,11.38ZM52.21,88.87c1.17,3.97,2.32,7.88,3.49,11.87-.53.17-.91.31-1.3.41-7.99,2-15.99,3.98-23.98,6.02-.93.24-1.37.05-1.88-.75-1.83-2.85-3.76-5.63-5.65-8.45-.31-.45-.58-.93-.95-1.54,10.2-2.55,20.17-5.04,30.27-7.56ZM21.71,31.69v-.13c7.45,8,14.75,15.84,22.17,23.8-7.41,1.85-14.73,3.68-22.11,5.52v-22.43l-.09-5.34s.02-.01.03-.02v-1.42ZM9.86,9.84c0-3.8,2.91-6.72,6.69-6.73,3.65,0,6.7,2.98,6.75,6.61.06,3.64-3.05,6.81-6.7,6.84-3.73.03-6.74-2.97-6.74-6.72ZM14.47,57.65c1.36-5.09,2.71-10.16,4.07-15.26v19.31c-1.36.34-2.71.68-4.07,1.02v-5.06ZM14.47,45.91v-26.39h4.07v11.24c-1.32,4.95-2.69,10.05-4.07,15.16ZM12.96,79.4c-.6-1.51-1.16-3.02-1.63-4.55-.75-2.43-1.28-4.91-1.4-7.53.47-.12.93-.23,1.4-.35,1.05-.26,2.09-.52,3.14-.78,1.36-.34,2.71-.68,4.07-1.02,1.08-.27,2.15-.54,3.23-.81,9.1-2.27,18.21-4.55,27.41-6.85-.07.81-.18,1.57-.18,2.32,0,3.2.01,6.4.06,9.6.01.68-.03,1.11-.84,1.31-8.82,2.18-17.64,4.38-26.45,6.58-1.08.27-2.15.54-3.23.81-1.36.34-2.71.68-4.07,1.01-.37.09-.74.19-1.1.28-.08.02-.18,0-.41-.01ZM18.54,140.08h-4.07v-50.02c1.26,2.31,2.62,4.56,4.07,6.77v43.25ZM19.38,92.43c-.28-.54-.56-1.07-.84-1.61-1.32-2.51-2.68-5.01-4.07-7.59l-.4-.75c.13-.03.27-.07.4-.1,1.36-.34,2.72-.68,4.07-1.02,1.08-.27,2.16-.54,3.23-.81,9.26-2.32,18.36-4.59,27.49-6.87.71,4.04,1.4,8.01,2.12,12.16-.5.12-.98.24-1.46.36-9.39,2.34-18.78,4.67-28.15,7.06-.06.01-.12.03-.18.04-1.09.28-1.69.13-2.22-.89Z"/><path class="cls-2" d="M14.07,82.48l.4.75v-.85c-.13.03-.27.07-.4.1Z"/></g></g></svg>